<mxfile host="app.diagrams.net" modified="2024-07-23T07:23:31.576Z" agent="Mozilla/5.0 (Windows NT 10.0; Win64; x64) AppleWebKit/537.36 (KHTML, like Gecko) Chrome/126.0.0.0 Safari/537.36" etag="04Y_mfDCGTfLotfhghRM" border="50" scale="3" compressed="false" locked="false" version="24.7.3" type="github">
  <diagram name="Blank" id="YmL12bMKpDGza6XwsDPr">
    <mxGraphModel dx="2634" dy="746" grid="0" gridSize="10" guides="1" tooltips="1" connect="1" arrows="1" fold="1" page="0" pageScale="1" pageWidth="827" pageHeight="1169" background="none" math="1" shadow="0">
      <root>
        <mxCell id="X5NqExCQtvZxIxQ7pmgY-0" />
        <mxCell id="1" parent="X5NqExCQtvZxIxQ7pmgY-0" />
        <mxCell id="O-yg-Vm8hz5GUzZbZP-_-1" value="BBQ" style="rounded=1;whiteSpace=wrap;html=1;" vertex="1" parent="1">
          <mxGeometry x="-145" y="748" width="120" height="60" as="geometry" />
        </mxCell>
        <mxCell id="O-yg-Vm8hz5GUzZbZP-_-4" value="" style="edgeStyle=orthogonalEdgeStyle;rounded=0;orthogonalLoop=1;jettySize=auto;html=1;" edge="1" parent="1" source="O-yg-Vm8hz5GUzZbZP-_-2" target="O-yg-Vm8hz5GUzZbZP-_-3">
          <mxGeometry relative="1" as="geometry" />
        </mxCell>
        <mxCell id="O-yg-Vm8hz5GUzZbZP-_-6" value="" style="edgeStyle=orthogonalEdgeStyle;rounded=0;orthogonalLoop=1;jettySize=auto;html=1;entryX=1;entryY=0.5;entryDx=0;entryDy=0;exitX=0.5;exitY=1;exitDx=0;exitDy=0;" edge="1" parent="1" source="O-yg-Vm8hz5GUzZbZP-_-2" target="O-yg-Vm8hz5GUzZbZP-_-5">
          <mxGeometry relative="1" as="geometry" />
        </mxCell>
        <mxCell id="O-yg-Vm8hz5GUzZbZP-_-42" value="" style="edgeStyle=orthogonalEdgeStyle;rounded=0;orthogonalLoop=1;jettySize=auto;html=1;" edge="1" parent="1" source="O-yg-Vm8hz5GUzZbZP-_-2" target="O-yg-Vm8hz5GUzZbZP-_-41">
          <mxGeometry relative="1" as="geometry" />
        </mxCell>
        <mxCell id="O-yg-Vm8hz5GUzZbZP-_-2" value="Concept" style="rounded=1;whiteSpace=wrap;html=1;" vertex="1" parent="1">
          <mxGeometry x="-554" y="760" width="120" height="60" as="geometry" />
        </mxCell>
        <mxCell id="O-yg-Vm8hz5GUzZbZP-_-3" value="Minimalist Cold Luxury&amp;nbsp;" style="whiteSpace=wrap;html=1;rounded=1;" vertex="1" parent="1">
          <mxGeometry x="-847" y="748" width="120" height="60" as="geometry" />
        </mxCell>
        <mxCell id="O-yg-Vm8hz5GUzZbZP-_-5" value="Concious consumption" style="whiteSpace=wrap;html=1;rounded=1;" vertex="1" parent="1">
          <mxGeometry x="-756" y="870" width="120" height="60" as="geometry" />
        </mxCell>
        <mxCell id="O-yg-Vm8hz5GUzZbZP-_-9" value="" style="edgeStyle=orthogonalEdgeStyle;rounded=0;orthogonalLoop=1;jettySize=auto;html=1;" edge="1" parent="1" source="O-yg-Vm8hz5GUzZbZP-_-7" target="O-yg-Vm8hz5GUzZbZP-_-8">
          <mxGeometry relative="1" as="geometry" />
        </mxCell>
        <mxCell id="O-yg-Vm8hz5GUzZbZP-_-11" value="" style="edgeStyle=orthogonalEdgeStyle;rounded=0;orthogonalLoop=1;jettySize=auto;html=1;" edge="1" parent="1" source="O-yg-Vm8hz5GUzZbZP-_-7" target="O-yg-Vm8hz5GUzZbZP-_-10">
          <mxGeometry relative="1" as="geometry" />
        </mxCell>
        <mxCell id="O-yg-Vm8hz5GUzZbZP-_-7" value="Best for" style="rounded=1;whiteSpace=wrap;html=1;" vertex="1" parent="1">
          <mxGeometry x="-556" y="999" width="120" height="60" as="geometry" />
        </mxCell>
        <mxCell id="O-yg-Vm8hz5GUzZbZP-_-8" value="Glampings" style="whiteSpace=wrap;html=1;rounded=1;" vertex="1" parent="1">
          <mxGeometry x="-756" y="999" width="120" height="60" as="geometry" />
        </mxCell>
        <mxCell id="O-yg-Vm8hz5GUzZbZP-_-10" value="Private Houses" style="whiteSpace=wrap;html=1;rounded=1;" vertex="1" parent="1">
          <mxGeometry x="-556" y="1139" width="120" height="60" as="geometry" />
        </mxCell>
        <mxCell id="O-yg-Vm8hz5GUzZbZP-_-14" value="" style="edgeStyle=orthogonalEdgeStyle;rounded=0;orthogonalLoop=1;jettySize=auto;html=1;" edge="1" parent="1" source="O-yg-Vm8hz5GUzZbZP-_-12" target="O-yg-Vm8hz5GUzZbZP-_-13">
          <mxGeometry relative="1" as="geometry" />
        </mxCell>
        <mxCell id="O-yg-Vm8hz5GUzZbZP-_-16" value="" style="edgeStyle=orthogonalEdgeStyle;rounded=0;orthogonalLoop=1;jettySize=auto;html=1;" edge="1" parent="1" source="O-yg-Vm8hz5GUzZbZP-_-12" target="O-yg-Vm8hz5GUzZbZP-_-15">
          <mxGeometry relative="1" as="geometry" />
        </mxCell>
        <mxCell id="O-yg-Vm8hz5GUzZbZP-_-12" value="Usage" style="rounded=1;whiteSpace=wrap;html=1;" vertex="1" parent="1">
          <mxGeometry x="-559" y="1267" width="120" height="60" as="geometry" />
        </mxCell>
        <mxCell id="O-yg-Vm8hz5GUzZbZP-_-13" value="Indoor" style="whiteSpace=wrap;html=1;rounded=1;" vertex="1" parent="1">
          <mxGeometry x="-759" y="1267" width="120" height="60" as="geometry" />
        </mxCell>
        <mxCell id="O-yg-Vm8hz5GUzZbZP-_-15" value="Outdoor" style="whiteSpace=wrap;html=1;rounded=1;" vertex="1" parent="1">
          <mxGeometry x="-559" y="1407" width="120" height="60" as="geometry" />
        </mxCell>
        <mxCell id="O-yg-Vm8hz5GUzZbZP-_-19" value="" style="edgeStyle=orthogonalEdgeStyle;rounded=0;orthogonalLoop=1;jettySize=auto;html=1;" edge="1" parent="1" source="O-yg-Vm8hz5GUzZbZP-_-17" target="O-yg-Vm8hz5GUzZbZP-_-18">
          <mxGeometry relative="1" as="geometry" />
        </mxCell>
        <mxCell id="O-yg-Vm8hz5GUzZbZP-_-21" value="" style="edgeStyle=orthogonalEdgeStyle;rounded=0;orthogonalLoop=1;jettySize=auto;html=1;exitX=1;exitY=0.5;exitDx=0;exitDy=0;entryX=0;entryY=0.5;entryDx=0;entryDy=0;" edge="1" parent="1" source="O-yg-Vm8hz5GUzZbZP-_-29" target="O-yg-Vm8hz5GUzZbZP-_-20">
          <mxGeometry relative="1" as="geometry" />
        </mxCell>
        <mxCell id="O-yg-Vm8hz5GUzZbZP-_-30" value="" style="edgeStyle=orthogonalEdgeStyle;rounded=0;orthogonalLoop=1;jettySize=auto;html=1;" edge="1" parent="1" source="O-yg-Vm8hz5GUzZbZP-_-17" target="O-yg-Vm8hz5GUzZbZP-_-29">
          <mxGeometry relative="1" as="geometry" />
        </mxCell>
        <mxCell id="O-yg-Vm8hz5GUzZbZP-_-17" value="Bundle" style="rounded=1;whiteSpace=wrap;html=1;" vertex="1" parent="1">
          <mxGeometry x="84" y="1123" width="120" height="60" as="geometry" />
        </mxCell>
        <mxCell id="O-yg-Vm8hz5GUzZbZP-_-18" value="Wood Box with Fire Logo Carving" style="whiteSpace=wrap;html=1;rounded=1;" vertex="1" parent="1">
          <mxGeometry x="284" y="1123" width="120" height="60" as="geometry" />
        </mxCell>
        <mxCell id="O-yg-Vm8hz5GUzZbZP-_-20" value="Cutlery" style="whiteSpace=wrap;html=1;rounded=1;" vertex="1" parent="1">
          <mxGeometry x="396" y="1305" width="120" height="60" as="geometry" />
        </mxCell>
        <mxCell id="O-yg-Vm8hz5GUzZbZP-_-24" value="" style="edgeStyle=orthogonalEdgeStyle;rounded=0;orthogonalLoop=1;jettySize=auto;html=1;" edge="1" parent="1" source="O-yg-Vm8hz5GUzZbZP-_-22" target="O-yg-Vm8hz5GUzZbZP-_-23">
          <mxGeometry relative="1" as="geometry" />
        </mxCell>
        <mxCell id="O-yg-Vm8hz5GUzZbZP-_-26" value="" style="edgeStyle=orthogonalEdgeStyle;rounded=0;orthogonalLoop=1;jettySize=auto;html=1;" edge="1" parent="1" source="O-yg-Vm8hz5GUzZbZP-_-22" target="O-yg-Vm8hz5GUzZbZP-_-25">
          <mxGeometry relative="1" as="geometry" />
        </mxCell>
        <mxCell id="O-yg-Vm8hz5GUzZbZP-_-28" value="" style="edgeStyle=orthogonalEdgeStyle;rounded=0;orthogonalLoop=1;jettySize=auto;html=1;" edge="1" parent="1" source="O-yg-Vm8hz5GUzZbZP-_-22" target="O-yg-Vm8hz5GUzZbZP-_-27">
          <mxGeometry relative="1" as="geometry" />
        </mxCell>
        <mxCell id="O-yg-Vm8hz5GUzZbZP-_-22" value="Customer Value Poposition" style="rounded=1;whiteSpace=wrap;html=1;" vertex="1" parent="1">
          <mxGeometry x="-549" y="463" width="120" height="60" as="geometry" />
        </mxCell>
        <mxCell id="O-yg-Vm8hz5GUzZbZP-_-23" value="1-Click Professional" style="whiteSpace=wrap;html=1;rounded=1;" vertex="1" parent="1">
          <mxGeometry x="-759" y="400" width="120" height="60" as="geometry" />
        </mxCell>
        <mxCell id="O-yg-Vm8hz5GUzZbZP-_-25" value="Zero to Hero Concept" style="whiteSpace=wrap;html=1;rounded=1;" vertex="1" parent="1">
          <mxGeometry x="-549" y="354" width="120" height="60" as="geometry" />
        </mxCell>
        <mxCell id="O-yg-Vm8hz5GUzZbZP-_-27" value="Short Educational Curve" style="whiteSpace=wrap;html=1;rounded=1;" vertex="1" parent="1">
          <mxGeometry x="-398" y="304" width="120" height="60" as="geometry" />
        </mxCell>
        <mxCell id="O-yg-Vm8hz5GUzZbZP-_-32" value="" style="edgeStyle=orthogonalEdgeStyle;rounded=0;orthogonalLoop=1;jettySize=auto;html=1;" edge="1" parent="1" source="O-yg-Vm8hz5GUzZbZP-_-29" target="O-yg-Vm8hz5GUzZbZP-_-31">
          <mxGeometry relative="1" as="geometry" />
        </mxCell>
        <mxCell id="O-yg-Vm8hz5GUzZbZP-_-29" value="Accesories" style="whiteSpace=wrap;html=1;rounded=1;" vertex="1" parent="1">
          <mxGeometry x="206" y="1327" width="120" height="60" as="geometry" />
        </mxCell>
        <mxCell id="O-yg-Vm8hz5GUzZbZP-_-31" value="Chef&#39;s Robe" style="whiteSpace=wrap;html=1;rounded=1;" vertex="1" parent="1">
          <mxGeometry x="206" y="1467" width="120" height="60" as="geometry" />
        </mxCell>
        <mxCell id="O-yg-Vm8hz5GUzZbZP-_-35" value="" style="edgeStyle=orthogonalEdgeStyle;rounded=0;orthogonalLoop=1;jettySize=auto;html=1;" edge="1" parent="1" source="O-yg-Vm8hz5GUzZbZP-_-33" target="O-yg-Vm8hz5GUzZbZP-_-34">
          <mxGeometry relative="1" as="geometry" />
        </mxCell>
        <mxCell id="O-yg-Vm8hz5GUzZbZP-_-38" value="" style="edgeStyle=orthogonalEdgeStyle;rounded=0;orthogonalLoop=1;jettySize=auto;html=1;entryX=1;entryY=0.5;entryDx=0;entryDy=0;" edge="1" parent="1" source="O-yg-Vm8hz5GUzZbZP-_-33" target="O-yg-Vm8hz5GUzZbZP-_-37">
          <mxGeometry relative="1" as="geometry" />
        </mxCell>
        <mxCell id="O-yg-Vm8hz5GUzZbZP-_-40" value="" style="edgeStyle=orthogonalEdgeStyle;rounded=0;orthogonalLoop=1;jettySize=auto;html=1;" edge="1" parent="1" source="O-yg-Vm8hz5GUzZbZP-_-33" target="O-yg-Vm8hz5GUzZbZP-_-39">
          <mxGeometry relative="1" as="geometry" />
        </mxCell>
        <mxCell id="O-yg-Vm8hz5GUzZbZP-_-33" value="Slogans" style="rounded=1;whiteSpace=wrap;html=1;" vertex="1" parent="1">
          <mxGeometry x="-600" y="621" width="120" height="60" as="geometry" />
        </mxCell>
        <mxCell id="O-yg-Vm8hz5GUzZbZP-_-34" value="Be everything you could be" style="whiteSpace=wrap;html=1;rounded=1;" vertex="1" parent="1">
          <mxGeometry x="-939" y="672" width="120" height="60" as="geometry" />
        </mxCell>
        <mxCell id="O-yg-Vm8hz5GUzZbZP-_-37" value="Be your best version" style="whiteSpace=wrap;html=1;rounded=1;" vertex="1" parent="1">
          <mxGeometry x="-906" y="529" width="120" height="60" as="geometry" />
        </mxCell>
        <mxCell id="O-yg-Vm8hz5GUzZbZP-_-39" value="" style="whiteSpace=wrap;html=1;rounded=1;" vertex="1" parent="1">
          <mxGeometry x="-400" y="621" width="120" height="60" as="geometry" />
        </mxCell>
        <mxCell id="O-yg-Vm8hz5GUzZbZP-_-41" value="Queit Wealth" style="whiteSpace=wrap;html=1;rounded=1;" vertex="1" parent="1">
          <mxGeometry x="-958" y="815" width="120" height="60" as="geometry" />
        </mxCell>
      </root>
    </mxGraphModel>
  </diagram>
</mxfile>
